<svg aria-hidden="true" style="position: absolute; width: 0; height: 0; overflow: hidden;" version="1.1" xmlns="http://www.w3.org/2000/svg" xmlns:xlink="http://www.w3.org/1999/xlink">
<defs>
<symbol id="icon-antenna-1" viewBox="0 0 16 16">
<path fill="#212121" style="fill: var(--color1, #212121)" d="M15.387 11.049l-4.222-4.253 0.469-2.308c0.121 0.047 0.249 0.072 0.379 0.073h0.003c0.596 0.007 1.085-0.47 1.092-1.067s-0.471-1.085-1.067-1.092c-0.596-0.007-1.085 0.47-1.092 1.067-0.002 0.128 0.020 0.254 0.062 0.375l-2.48 0.303-4.045-4.066c-0.050-0.051-0.117-0.079-0.188-0.080s-0.137 0.028-0.187 0.078l-0.756 0.752c-0.104 0.104-0.104 0.273 0 0.377l0.407 0.413c-1.577 2.899-1.064 6.489 1.26 8.831 0.021 0.020 0.046 0.037 0.073 0.049-0.017 0.090-0.026 0.182-0.026 0.274v3.093h-3.2c-0.736 0.001-1.332 0.597-1.333 1.333v0.533c0 0.147 0.119 0.267 0.267 0.267h12.267c0.147 0 0.267-0.119 0.267-0.267v-0.533c-0.001-0.736-0.597-1.332-1.333-1.333h-3.2v-1.371c0.501 0.105 1.012 0.159 1.524 0.16 1.229-0.001 2.439-0.308 3.52-0.892l0.409 0.411c0.050 0.051 0.117 0.079 0.188 0.080s0.137-0.028 0.187-0.078l0.756-0.752c0.104-0.104 0.104-0.273 0-0.377zM11.64 3.117c0.209-0.208 0.547-0.207 0.754 0.002s0.207 0.547-0.002 0.754c-0.1 0.099-0.235 0.155-0.376 0.155h-0.002c-0.295-0.002-0.532-0.242-0.531-0.536 0.001-0.141 0.057-0.276 0.157-0.375h-0.001zM11.012 4.869l-0.299 1.473-0.588-0.591 0.887-0.882zM10.709 4.418l-0.96 0.954-0.743-0.747 1.703-0.208zM12.002 14.4c0.442 0 0.8 0.358 0.8 0.8v0.267h-11.733v-0.267c0-0.442 0.358-0.8 0.8-0.8h10.133zM8.269 13.333v0.533h-2.667v-0.533h2.667zM5.602 12.8v-2.027c0-0.647 0.598-1.173 1.333-1.173s1.333 0.526 1.333 1.173v2.027h-2.667zM8.802 11.952v-1.179c0-0.941-0.837-1.707-1.867-1.707-0.666-0.010-1.288 0.329-1.641 0.893-2.029-2.137-2.486-5.323-1.139-7.944l9.301 9.354c-1.436 0.731-3.083 0.936-4.654 0.582zM14.447 11.61l-10.529-10.59 0.377-0.376 3.967 3.99c0.002 0 0.003 0.003 0.005 0.005l6.557 6.596-0.378 0.376z"></path>
<path fill="#2196f3" style="fill: var(--color2, #2196f3)" d="M6.938 10.133h-0.002c-0.442-0.001-0.801 0.357-0.801 0.799s0.357 0.801 0.799 0.801h0.002c0.442 0.001 0.801-0.357 0.801-0.799s-0.357-0.801-0.799-0.801zM7.124 11.122c-0.050 0.050-0.118 0.078-0.189 0.078-0.147-0.001-0.266-0.121-0.265-0.268 0-0.070 0.029-0.138 0.079-0.188s0.117-0.077 0.187-0.078c0.147 0.001 0.266 0.121 0.265 0.268-0 0.070-0.029 0.138-0.079 0.188h0.002z"></path>
</symbol>
<symbol id="icon-astronaut-1" viewBox="0 0 16 16">
<path fill="#2196f3" style="fill: var(--color2, #2196f3)" d="M15.987 2.262c-0.031-0.096-0.115-0.167-0.215-0.181l-0.955-0.139-0.427-0.866c-0.090-0.182-0.389-0.182-0.478 0l-0.427 0.866-0.955 0.139c-0.101 0.015-0.184 0.085-0.215 0.181s-0.005 0.203 0.067 0.273l0.691 0.674-0.163 0.951c-0.017 0.1 0.024 0.201 0.106 0.261 0.083 0.060 0.191 0.068 0.281 0.020l0.854-0.449 0.854 0.449c0.039 0.021 0.082 0.031 0.124 0.031 0.055 0 0.11-0.017 0.157-0.051 0.082-0.060 0.123-0.161 0.106-0.261l-0.163-0.952 0.691-0.674c0.072-0.071 0.099-0.177 0.067-0.273zM14.756 2.926c-0.063 0.061-0.091 0.15-0.077 0.236l0.095 0.557-0.5-0.263c-0.039-0.021-0.082-0.031-0.124-0.031s-0.085 0.010-0.124 0.031l-0.5 0.263 0.095-0.557c0.015-0.086-0.014-0.175-0.077-0.236l-0.405-0.395 0.559-0.081c0.087-0.013 0.162-0.067 0.201-0.146l0.25-0.507 0.25 0.507c0.039 0.079 0.114 0.133 0.201 0.146l0.559 0.081-0.405 0.395z"></path>
<path fill="#2196f3" style="fill: var(--color2, #2196f3)" d="M13.067 10.261h-0.533v0.533h0.533v-0.533z"></path>
<path fill="#2196f3" style="fill: var(--color2, #2196f3)" d="M13.067 11.328h-0.533v0.533h0.533v-0.533z"></path>
<path fill="#2196f3" style="fill: var(--color2, #2196f3)" d="M13.6 10.794h-0.533v0.533h0.533v-0.533z"></path>
<path fill="#2196f3" style="fill: var(--color2, #2196f3)" d="M12.533 10.794h-0.533v0.533h0.533v-0.533z"></path>
<path fill="#2196f3" style="fill: var(--color2, #2196f3)" d="M11.2 13.194h-0.533v0.533h0.533v-0.533z"></path>
<path fill="#2196f3" style="fill: var(--color2, #2196f3)" d="M11.2 14.261h-0.533v0.533h0.533v-0.533z"></path>
<path fill="#2196f3" style="fill: var(--color2, #2196f3)" d="M11.733 13.728h-0.533v0.533h0.533v-0.533z"></path>
<path fill="#2196f3" style="fill: var(--color2, #2196f3)" d="M10.667 13.728h-0.533v0.533h0.533v-0.533z"></path>
<path fill="#2196f3" style="fill: var(--color2, #2196f3)" d="M8 12.128h-0.533v0.533h0.533v-0.533z"></path>
<path fill="#2196f3" style="fill: var(--color2, #2196f3)" d="M8 13.194h-0.533v0.533h0.533v-0.533z"></path>
<path fill="#2196f3" style="fill: var(--color2, #2196f3)" d="M8.533 12.661h-0.533v0.533h0.533v-0.533z"></path>
<path fill="#2196f3" style="fill: var(--color2, #2196f3)" d="M7.467 12.661h-0.533v0.533h0.533v-0.533z"></path>
<path fill="#2196f3" style="fill: var(--color2, #2196f3)" d="M2.933 3.061h-0.533v0.533h0.533v-0.533z"></path>
<path fill="#2196f3" style="fill: var(--color2, #2196f3)" d="M2.933 4.128h-0.533v0.533h0.533v-0.533z"></path>
<path fill="#2196f3" style="fill: var(--color2, #2196f3)" d="M3.467 3.594h-0.533v0.533h0.533v-0.533z"></path>
<path fill="#2196f3" style="fill: var(--color2, #2196f3)" d="M2.4 3.594h-0.533v0.533h0.533v-0.533z"></path>
<path fill="#212121" style="fill: var(--color1, #212121)" d="M12.357 7.080c-0.144-0.194-0.355-0.319-0.594-0.352-0.241-0.034-0.478 0.029-0.67 0.176l-0.626 0.48-0.949 0.709-0.679-0.27c1.211-0.543 2.057-1.754 2.057-3.16 0-1.912-1.561-3.467-3.481-3.467s-3.481 1.555-3.481 3.467c0 0.693 0.207 1.337 0.56 1.879l-1.382-0.012c-0.001 0-0.002 0-0.002 0-0.004 0-0.008 0.002-0.012 0.002-0.026 0.001-0.052 0.006-0.078 0.015-0.006 0.002-0.013 0.004-0.019 0.007-0.003 0.001-0.006 0.002-0.010 0.003l-1.617 0.798c-0 0-0.001 0-0.001 0l-0.947 0.455c-0.010 0.005-0.021 0.011-0.031 0.018-0.377 0.251-0.506 0.745-0.299 1.148 0.11 0.214 0.298 0.372 0.528 0.445 0.089 0.028 0.179 0.041 0.27 0.041 0.145 0 0.288-0.035 0.42-0.106l0.694-0.369 1.132-0.585 0.678-0.004-2.721 2.708c-0 0-0.001 0-0.001 0.001l-0.669 0.667c-0.158 0.157-0.245 0.366-0.245 0.589s0.087 0.432 0.245 0.589c0.162 0.162 0.376 0.243 0.59 0.243s0.427-0.081 0.59-0.243l0.657-0.654 0.87-0.65 0.45 0.449-0.881 0.877c-0 0-0.001 0-0.001 0.001l-0.669 0.667c-0.158 0.157-0.245 0.366-0.245 0.589s0.087 0.432 0.245 0.589c0.162 0.162 0.376 0.243 0.59 0.243s0.427-0.081 0.59-0.243l1.741-1.733c0-0 0-0.001 0.001-0.001l0.505-0.5-0.002-0.002c0.003-0.003 0.008-0.004 0.011-0.008l2.583-2.829 1.736 0.247c0.013 0.002 0.025 0.003 0.038 0.003 0.032 0 0.063-0.008 0.094-0.019 0.009-0.003 0.017-0.007 0.025-0.012 0.010-0.005 0.020-0.007 0.029-0.014l1.607-1.067c0.006-0.004 0.009-0.010 0.015-0.015s0.014-0.007 0.020-0.013l0.636-0.595c0.331-0.31 0.376-0.818 0.106-1.181zM1.065 8.885c-0.087 0.046-0.185 0.056-0.279 0.026s-0.169-0.093-0.213-0.179c-0.081-0.157-0.034-0.348 0.107-0.451l0.657-0.316 0.225 0.656-0.496 0.264zM2.814 7.971l-0.774 0.4-0.219-0.642 1.013-0.5-0.020 0.742zM10.363 4.661c0 0.459-0.11 0.892-0.299 1.28l-2.091-0.95c-0.022-0.287-0.171-0.538-0.394-0.694l0.732-2.43c1.189 0.378 2.052 1.487 2.052 2.794zM4.469 4.661c0-1.617 1.322-2.933 2.947-2.933 0.126 0 0.25 0.011 0.373 0.026l-0.716 2.377c-0.010-0-0.019-0.003-0.029-0.003-0.516 0-0.936 0.419-0.936 0.933s0.42 0.933 0.936 0.933c0.347 0 0.647-0.192 0.809-0.472l1.931 0.877c-0.537 0.723-1.397 1.195-2.368 1.195-1.625 0-2.947-1.316-2.947-2.933zM7.447 5.061c0 0.221-0.181 0.4-0.403 0.4s-0.403-0.179-0.403-0.4c0-0.221 0.181-0.4 0.403-0.4s0.403 0.179 0.403 0.4zM1.232 12.573c-0.118 0.117-0.309 0.117-0.427 0-0.057-0.057-0.088-0.132-0.088-0.211s0.031-0.154 0.088-0.211l0.481-0.479 0.426 0.424-0.479 0.477zM2.839 14.44c-0.118 0.117-0.31 0.117-0.427 0-0.057-0.057-0.088-0.132-0.088-0.211s0.031-0.154 0.088-0.211l0.481-0.479 0.426 0.424-0.48 0.478zM4.58 12.705c-0 0-0.001 0-0.001 0.001l-0.882 0.88-0.426-0.424 0.882-0.878c0 0 0 0 0-0s0.001-0 0.001-0.001c0.020-0.020 0.033-0.044 0.045-0.068 0.003-0.007 0.010-0.013 0.013-0.020 0.008-0.021 0.010-0.043 0.013-0.064 0.002-0.012 0.007-0.024 0.007-0.036 0-0.018-0.006-0.035-0.010-0.053-0.003-0.016-0.003-0.032-0.009-0.048-0.010-0.025-0.027-0.047-0.046-0.069-0.005-0.006-0.007-0.013-0.013-0.019 0 0 0 0-0 0s-0-0.001-0.001-0.001l-0.804-0.8c-0.009-0.009-0.019-0.012-0.029-0.019-0.014-0.011-0.028-0.021-0.043-0.029s-0.031-0.012-0.047-0.016c-0.017-0.005-0.034-0.009-0.051-0.010-0.016-0.001-0.031 0.001-0.048 0.002-0.018 0.002-0.035 0.005-0.052 0.010s-0.032 0.014-0.047 0.022c-0.010 0.006-0.021 0.007-0.030 0.014l-0.887 0.662-0.45-0.449 1.2-1.193 2.18 2.144-0.464 0.459zM7.99 9.197c-0.008-0.001-0.015 0.002-0.023 0.001-0.019-0.001-0.038 0-0.058 0.003-0.015 0.003-0.030 0.006-0.044 0.011-0.017 0.006-0.033 0.014-0.048 0.023s-0.029 0.019-0.042 0.031c-0.006 0.006-0.014 0.008-0.020 0.015l-2.349 2.573-2.164-2.128 1.417-1.409c0.104-0.104 0.105-0.273 0.001-0.377-0.053-0.053-0.122-0.078-0.191-0.078v-0l-1.109 0.007 0.014-0.804 1.552 0.013c0.633 0.647 1.515 1.050 2.491 1.050 0.219 0 0.432-0.023 0.64-0.061 0.020 0.016 0.040 0.032 0.065 0.042l1.205 0.48 0.165 0.822-1.501-0.214zM10.010 9.286l-0.157-0.779 0.723-0.54 0.473 0.628-1.040 0.691zM11.887 7.871l-0.419 0.393-0.466-0.618 0.416-0.319c0.078-0.060 0.175-0.084 0.271-0.071 0.097 0.014 0.182 0.064 0.24 0.142 0.108 0.146 0.090 0.349-0.043 0.474z"></path>
<path fill="#212121" style="fill: var(--color1, #212121)" d="M6.801 9.272l-1.071-1.067c-0.104-0.104-0.272-0.104-0.376 0l-1.071 1.067c-0.050 0.050-0.078 0.118-0.078 0.189s0.028 0.139 0.078 0.189l1.071 1.067c0.052 0.052 0.12 0.078 0.188 0.078s0.136-0.026 0.188-0.078l1.071-1.067c0.050-0.050 0.079-0.118 0.079-0.189s-0.028-0.139-0.079-0.189zM5.542 10.152l-0.693-0.69 0.693-0.69 0.694 0.69-0.694 0.69z"></path>
<path fill="#212121" style="fill: var(--color1, #212121)" d="M8.582 2.535l-0.129 0.518c0.035 0.009 0.869 0.226 0.869 1.074h0.533c-0-1.009-0.833-1.483-1.273-1.592z"></path>
<path fill="#212121" style="fill: var(--color1, #212121)" d="M9.855 4.661h-0.533v0.533h0.533v-0.533z"></path>
</symbol>
<symbol id="icon-clock-1" viewBox="0 0 16 16">
<path fill="#212121" style="fill: var(--color1, #212121)" d="M15.648 7.651c-0.001-4.226-3.428-7.651-7.654-7.651s-7.651 3.428-7.651 7.654c0.001 3.329 2.153 6.276 5.325 7.288 0.030 0.010 0.062 0.014 0.093 0.014 0.060-0 0.119-0.016 0.171-0.047 0.068-0.040 0.118-0.103 0.142-0.178l1.933-6.125c0.528-0.003 0.954-0.433 0.952-0.961s-0.433-0.954-0.961-0.952c-0.142 0.001-0.282 0.033-0.41 0.096l-2.553-2.553c-0.127-0.122-0.329-0.119-0.451 0.008-0.119 0.124-0.119 0.319 0 0.443l2.552 2.555c-0.196 0.4-0.084 0.882 0.268 1.155l-1.841 5.836c-3.639-1.34-5.502-5.377-4.162-9.016s5.377-5.502 9.016-4.162 5.502 5.377 4.162 9.016c-0.655 1.778-2 3.216-3.731 3.987l-0.199-0.937c-0.036-0.172-0.206-0.282-0.378-0.246-0.054 0.012-0.105 0.037-0.146 0.074l-1.918 1.713c-0.132 0.117-0.143 0.319-0.026 0.45 0.038 0.043 0.087 0.074 0.142 0.092l2.449 0.782c0.168 0.054 0.347-0.038 0.401-0.206 0.017-0.053 0.020-0.109 0.008-0.164l-0.196-0.92c2.832-1.194 4.671-3.971 4.664-7.045zM7.996 7.332c0.176 0 0.319 0.143 0.319 0.319s-0.143 0.319-0.319 0.319c-0.176 0-0.319-0.143-0.319-0.319s0.143-0.319 0.319-0.319zM9.046 14.764l1.092-0.974 0.301 1.42-1.393-0.446z"></path>
<path fill="#2196f3" style="fill: var(--color2, #2196f3)" d="M7.677 1.593v0.638c0 0.176 0.143 0.319 0.319 0.319s0.319-0.143 0.319-0.319v-0.638c0-0.176-0.143-0.319-0.319-0.319s-0.319 0.143-0.319 0.319z"></path>
<path fill="#2196f3" style="fill: var(--color2, #2196f3)" d="M1.938 7.332c-0.176 0-0.319 0.143-0.319 0.319s0.143 0.319 0.319 0.319h0.638c0.176 0 0.319-0.143 0.319-0.319s-0.143-0.319-0.319-0.319h-0.638z"></path>
<path fill="#2196f3" style="fill: var(--color2, #2196f3)" d="M14.054 7.969c0.176 0 0.319-0.143 0.319-0.319s-0.143-0.319-0.319-0.319h-0.638c-0.176 0-0.319 0.143-0.319 0.319s0.143 0.319 0.319 0.319h0.638z"></path>
</symbol>
<symbol id="icon-diagram-1" viewBox="0 0 16 16">
<path fill="#2196f3" style="fill: var(--color2, #2196f3)" d="M7.463 7.482h0.533v2.399h-0.533v-2.399z"></path>
<path fill="#2196f3" style="fill: var(--color2, #2196f3)" d="M9.595 8.548h0.533v1.333h-0.533v-1.333z"></path>
<path fill="#2196f3" style="fill: var(--color2, #2196f3)" d="M5.331 9.348h0.533v0.533h-0.533v-0.533z"></path>
<path fill="#2196f3" style="fill: var(--color2, #2196f3)" d="M3.731 9.081h0.533v0.8h-0.533v-0.8z"></path>
<path fill="#212121" style="fill: var(--color1, #212121)" d="M0.8 14.145h12.793c0.442 0 0.8-0.358 0.8-0.8v-1.066c0-0.442-0.358-0.8-0.8-0.8h-0.267v-6.647l1.514-1.434c0.351 0.173 0.777 0.068 1.007-0.249s0.198-0.754-0.076-1.034-0.71-0.322-1.032-0.099c-0.322 0.223-0.437 0.646-0.271 1.001l-1.141 1.081v-0.615c0-0.442-0.358-0.8-0.8-0.8h-10.661c-0.442 0-0.8 0.358-0.8 0.8v7.996h-0.267c-0.442 0-0.8 0.358-0.8 0.8v1.066c0 0.442 0.358 0.8 0.8 0.8zM15.192 2.418c0.147 0 0.267 0.119 0.267 0.267s-0.119 0.267-0.267 0.267c-0.147 0-0.267-0.119-0.267-0.267s0.119-0.267 0.267-0.267zM1.599 3.484c0-0.147 0.119-0.267 0.267-0.267h10.661c0.147 0 0.267 0.119 0.267 0.267v1.119l-0.533 0.506v-1.093c0-0.147-0.119-0.267-0.267-0.267h-9.595c-0.147 0-0.267 0.119-0.267 0.267v6.663c0 0.147 0.119 0.267 0.267 0.267h9.595c0.147 0 0.267-0.119 0.267-0.267v-4.837l0.533-0.505v6.142h-11.194v-7.996zM3.998 6.949c-0.361-0.001-0.677 0.239-0.773 0.587s0.053 0.716 0.363 0.9c0.31 0.184 0.705 0.138 0.964-0.113l0.926 0.465c0.108 0.054 0.238 0.029 0.318-0.061l1.969-2.216 1.936 1.451c0.104 0.078 0.249 0.069 0.343-0.020l1.683-1.594v4.066h-9.062v-6.13h9.062v1.33l-1.886 1.786-1.952-1.464c-0.111-0.083-0.267-0.067-0.359 0.036l-1.996 2.246-0.746-0.373c0.005-0.032 0.009-0.064 0.010-0.097 0-0.442-0.358-0.8-0.8-0.8zM4.264 7.749c0 0.147-0.119 0.267-0.267 0.267s-0.267-0.119-0.267-0.267c0-0.147 0.119-0.267 0.267-0.267s0.267 0.119 0.267 0.267zM5.864 12.013h2.665v0.267c0 0.147-0.119 0.267-0.267 0.267h-2.132c-0.147 0-0.267-0.119-0.267-0.267v-0.267zM0.533 12.28c0-0.147 0.119-0.267 0.267-0.267h4.531v0.267c0 0.442 0.358 0.8 0.8 0.8h2.132c0.442 0 0.8-0.358 0.8-0.8v-0.267h4.531c0.147 0 0.267 0.119 0.267 0.267v1.066c0 0.147-0.119 0.267-0.267 0.267h-12.793c-0.147 0-0.267-0.119-0.267-0.267v-1.066z"></path>
</symbol>
<symbol id="icon-envelope" viewBox="0 0 21 16">
<path d="M19.333 0h-17.333c-1.103 0-2 0.897-2 2v12c0 1.103 0.897 2 2 2h17.333c1.103 0 2-0.897 2-2v-12c0-1.103-0.897-2-2-2zM19.333 1.333c0.091 0 0.177 0.019 0.255 0.052l-8.922 7.733-8.922-7.733c0.079-0.033 0.165-0.052 0.256-0.052h17.333zM19.333 14.667h-17.333c-0.368 0-0.667-0.299-0.667-0.667v-11.206l8.896 7.71c0.126 0.109 0.281 0.163 0.437 0.163s0.311-0.054 0.437-0.163l8.896-7.71v11.206c0 0.368-0.299 0.667-0.667 0.667z"></path>
</symbol>
<symbol id="icon-facebook-1" viewBox="0 0 16 16">
<path d="M10.665 2.657h1.461v-2.544c-0.252-0.035-1.119-0.113-2.128-0.113-2.106 0-3.549 1.325-3.549 3.759v2.241h-2.324v2.844h2.324v7.156h2.849v-7.155h2.23l0.354-2.844h-2.585v-1.959c0.001-0.822 0.222-1.385 1.367-1.385z"></path>
</symbol>
<symbol id="icon-group1" viewBox="0 0 14 16">
<path  d="M2.043 0l2.386 2.258-4.428-0.003v10.957h11.574v-4.19l2.383 2.256v-11.28h-11.915zM11.47 8.759l-6.764-6.404h6.764v6.404zM9.37 11.61h-7.538v-7.369h0.533v6.87h7.005v0.499zM3.612 14.672l-0.278 0.573-0.278-0.573h-0.234l0.406 0.765v0.445h0.211v-0.445l0.406-0.765h-0.233zM3.961 15.882l0.098-0.282h0.469l0.099 0.282h0.219l-0.458-1.21h-0.189l-0.457 1.21h0.219zM4.294 14.929l0.175 0.502h-0.351l0.175-0.502zM5.403 15.402c-0.030 0.047-0.046 0.098-0.046 0.154 0 0.102 0.036 0.185 0.107 0.249s0.168 0.095 0.288 0.095 0.223-0.032 0.309-0.097l0.068 0.081h0.234l-0.178-0.21c0.070-0.095 0.105-0.217 0.105-0.367h-0.175c0 0.081-0.017 0.155-0.051 0.222l-0.234-0.276 0.082-0.060c0.058-0.042 0.1-0.084 0.126-0.126s0.038-0.089 0.038-0.14c0-0.076-0.028-0.14-0.085-0.192s-0.128-0.078-0.216-0.078c-0.098 0-0.175 0.028-0.233 0.083s-0.086 0.13-0.086 0.224c0 0.039 0.009 0.079 0.027 0.121s0.052 0.092 0.099 0.151c-0.090 0.064-0.15 0.12-0.18 0.167zM5.949 15.669c-0.059 0.045-0.123 0.068-0.191 0.068-0.060 0-0.109-0.017-0.145-0.052s-0.054-0.080-0.054-0.136c0-0.065 0.033-0.122 0.1-0.173l0.026-0.018 0.264 0.312zM5.732 15.133c-0.057-0.070-0.086-0.129-0.086-0.175 0-0.040 0.012-0.074 0.035-0.101s0.055-0.040 0.094-0.040c0.037 0 0.067 0.011 0.091 0.034s0.036 0.049 0.036 0.081c0 0.048-0.017 0.087-0.052 0.117l-0.026 0.021-0.092 0.063zM7.701 15.791c0.083-0.073 0.131-0.173 0.143-0.303h-0.209c-0.011 0.086-0.037 0.148-0.079 0.185s-0.104 0.056-0.186 0.056c-0.090 0-0.159-0.034-0.206-0.103s-0.070-0.168-0.070-0.299v-0.107c0.001-0.129 0.026-0.227 0.075-0.293s0.12-0.101 0.211-0.101c0.079 0 0.138 0.019 0.179 0.058s0.066 0.101 0.076 0.188h0.209c-0.013-0.132-0.061-0.235-0.142-0.307s-0.189-0.109-0.322-0.109c-0.099 0-0.187 0.024-0.263 0.071s-0.133 0.114-0.174 0.201c-0.040 0.087-0.061 0.188-0.061 0.302v0.113c0.002 0.111 0.022 0.209 0.062 0.293s0.096 0.149 0.17 0.195c0.074 0.045 0.159 0.068 0.255 0.068 0.138 0 0.249-0.036 0.332-0.108zM8.937 15.621c0.041-0.090 0.062-0.194 0.062-0.313v-0.067c-0.001-0.118-0.022-0.221-0.063-0.31s-0.101-0.157-0.177-0.204c-0.076-0.048-0.163-0.071-0.262-0.071s-0.186 0.024-0.263 0.072c-0.076 0.048-0.135 0.117-0.177 0.207s-0.062 0.194-0.062 0.313v0.068c0.001 0.116 0.022 0.218 0.063 0.307s0.101 0.157 0.178 0.205c0.077 0.048 0.165 0.071 0.263 0.071 0.099 0 0.187-0.024 0.263-0.071s0.135-0.117 0.176-0.206zM8.712 14.937c0.051 0.071 0.076 0.174 0.076 0.308v0.063c0 0.136-0.025 0.24-0.076 0.311s-0.121 0.106-0.214 0.106c-0.092 0-0.164-0.036-0.216-0.109s-0.077-0.175-0.077-0.308v-0.070c0.001-0.13 0.027-0.231 0.078-0.302s0.123-0.107 0.214-0.107c0.093 0 0.165 0.036 0.215 0.107z"></path>
</symbol>
<symbol id="icon-group2" viewBox="0 0 12 16">
<path  d="M0.842 12.988c-0.045-0.046-0.099-0.083-0.158-0.107s-0.124-0.035-0.188-0.033c-0.069-0.001-0.137 0.012-0.2 0.038-0.058 0.023-0.111 0.058-0.156 0.102s-0.078 0.098-0.1 0.156c-0.024 0.061-0.037 0.127-0.036 0.193v1.167c-0.003 0.082 0.013 0.164 0.046 0.239 0.028 0.060 0.067 0.113 0.117 0.156 0.047 0.039 0.101 0.068 0.16 0.083 0.057 0.016 0.115 0.024 0.174 0.024 0.065 0.001 0.129-0.013 0.188-0.041 0.058-0.026 0.111-0.062 0.156-0.108 0.043-0.045 0.078-0.098 0.102-0.156s0.038-0.122 0.037-0.186v-0.131h-0.305v0.104c0.001 0.036-0.005 0.071-0.018 0.104-0.010 0.025-0.025 0.047-0.044 0.066-0.019 0.015-0.041 0.027-0.064 0.034-0.021 0.007-0.042 0.011-0.064 0.011-0.027 0.003-0.055-0.001-0.080-0.012s-0.047-0.028-0.063-0.051c-0.029-0.047-0.043-0.101-0.040-0.156v-1.088c-0.002-0.060 0.011-0.12 0.037-0.174 0.016-0.025 0.038-0.044 0.065-0.057s0.056-0.017 0.085-0.014c0.026-0.001 0.052 0.005 0.076 0.016s0.044 0.029 0.060 0.050c0.034 0.045 0.052 0.1 0.051 0.156v0.101h0.302v-0.119c0.001-0.070-0.012-0.139-0.037-0.204-0.023-0.061-0.057-0.117-0.102-0.164z"></path>
<path  d="M5.266 0.903h-0.042c-0.065-0.004-0.129-0.005-0.194-0.007v0h-0.14c-0.122 0-0.247 0.003-0.371 0.009-0.009-0.001-0.019-0.001-0.028 0-1.121 0.064-2.22 0.344-3.236 0.825l-0.133 0.064v6.813l0.311-0.106c0.273-0.094 0.564-0.178 0.866-0.257 0.814-0.209 1.65-0.32 2.491-0.331v0.895c-0.111 0.001-0.22 0.004-0.328 0.009h-0.026c-0.647 0.035-1.289 0.134-1.916 0.294-0.795 0.199-1.562 0.498-2.283 0.89v-8.737c0.749-0.437 1.555-0.765 2.395-0.974 0.738-0.19 1.496-0.288 2.257-0.291h0.132c0.157 0.004 0.311 0.011 0.455 0.022 0.379 0.027 0.756 0.087 1.125 0.179v0.881c-0.358-0.083-0.723-0.138-1.090-0.164-0.007-0.001-0.015-0.001-0.022-0.002-0.076-0.006-0.152-0.013-0.223-0.013zM6.816 1.804c0.195 0.015 0.398 0.022 0.602 0.022 0.801-0.003 1.598-0.105 2.373-0.304 0.795-0.2 1.561-0.499 2.282-0.89v8.582c-0.749 0.436-1.556 0.764-2.396 0.974-0.738 0.19-1.496 0.287-2.257 0.29-0.577 0.005-1.152-0.063-1.712-0.202v-8.637c0.132 0.031 0.269 0.059 0.407 0.082 0.227 0.038 0.467 0.067 0.701 0.084zM11.184 1.87l-0.311 0.105c-0.286 0.096-0.575 0.182-0.866 0.259-0.845 0.217-1.714 0.329-2.587 0.332-0.203 0-0.39-0.005-0.571-0.017l-0.248-0.016v7.008l0.213 0.019c0.198 0.017 0.402 0.026 0.607 0.026 0.687-0.003 1.371-0.091 2.037-0.264 0.548-0.137 1.081-0.329 1.592-0.572l0.133-0.064v-6.815z"></path>
<path  d="M2.655 12.975c-0.097-0.082-0.22-0.128-0.347-0.128-0.062 0-0.124 0.011-0.182 0.033s-0.114 0.054-0.161 0.095c-0.051 0.045-0.091 0.101-0.118 0.164-0.031 0.071-0.046 0.148-0.044 0.226v1.12c-0.002 0.079 0.013 0.157 0.044 0.229 0.028 0.060 0.068 0.114 0.118 0.156 0.047 0.043 0.101 0.077 0.161 0.099 0.058 0.021 0.12 0.033 0.182 0.033s0.124-0.011 0.182-0.033c0.061-0.022 0.117-0.056 0.165-0.099s0.088-0.097 0.115-0.156c0.031-0.072 0.046-0.15 0.044-0.229v-1.12c0.002-0.078-0.014-0.155-0.044-0.226-0.027-0.062-0.066-0.117-0.115-0.164zM2.513 14.484c0.003 0.030-0.002 0.060-0.012 0.088s-0.027 0.053-0.049 0.074c-0.040 0.034-0.091 0.052-0.144 0.052s-0.103-0.019-0.144-0.052c-0.022-0.021-0.038-0.046-0.049-0.074s-0.015-0.058-0.012-0.088v-1.12c-0.003-0.030 0.002-0.060 0.012-0.088s0.027-0.053 0.049-0.074c0.040-0.034 0.091-0.052 0.144-0.052s0.103 0.019 0.144 0.052c0.022 0.021 0.038 0.046 0.049 0.074s0.015 0.058 0.012 0.088v1.12z"></path>
<path  d="M5.036 14.984v-2.12h-0.293l-0.385 1.122h-0.005l-0.388-1.122h-0.29v2.12h0.303v-1.289h0.005l0.297 0.912h0.151l0.299-0.912h0.005v1.289h0.303z"></path>
<path  d="M6.756 13.013c-0.047-0.052-0.105-0.092-0.171-0.116-0.071-0.023-0.145-0.034-0.22-0.033h-0.45v2.12h0.302v-0.828h0.156c0.094 0.004 0.188-0.016 0.272-0.058 0.069-0.038 0.126-0.094 0.166-0.162 0.035-0.056 0.058-0.119 0.069-0.185 0.012-0.080 0.017-0.16 0.016-0.241 0.003-0.102-0.007-0.204-0.030-0.303-0.020-0.073-0.058-0.14-0.111-0.195zM6.601 13.66c-0.001 0.038-0.011 0.076-0.028 0.11-0.017 0.033-0.045 0.059-0.078 0.074-0.045 0.020-0.094 0.029-0.142 0.027h-0.138v-0.721h0.156c0.047-0.002 0.094 0.007 0.136 0.027 0.031 0.018 0.056 0.045 0.071 0.078 0.017 0.037 0.026 0.077 0.026 0.118 0 0.045 0 0.092 0 0.141s0.003 0.1 0 0.146h-0.003z"></path>
<path  d="M8.187 12.865h-0.248l-0.467 2.12h0.302l0.089-0.455h0.412l0.089 0.455h0.302l-0.479-2.12zM7.908 14.24l0.149-0.768h0.005l0.148 0.768h-0.302z"></path>
<path  d="M10.138 14.142h-0.005l-0.456-1.277h-0.29v2.12h0.302v-1.275h0.006l0.462 1.275h0.284v-2.12h-0.302v1.277z"></path>
<path  d="M0 15.583h0.146v0.408h0.099v-0.408h0.145v-0.084h-0.389v0.084z"></path>
<path  d="M1.224 15.499l-0.191 0.492h0.105l0.040-0.112h0.196l0.042 0.112h0.107l-0.195-0.492h-0.105zM1.208 15.797l0.067-0.182 0.067 0.182h-0.134z"></path>
<path  d="M2.433 15.81h0.114v0.063c-0.033 0.027-0.074 0.041-0.117 0.041-0.020 0.001-0.040-0.003-0.058-0.011s-0.034-0.021-0.046-0.036c-0.026-0.037-0.039-0.083-0.037-0.128 0-0.11 0.047-0.164 0.142-0.164 0.025-0.002 0.050 0.004 0.070 0.018s0.035 0.036 0.041 0.060l0.097-0.019c-0.021-0.096-0.090-0.145-0.209-0.145-0.063-0.002-0.125 0.021-0.172 0.063-0.025 0.024-0.044 0.054-0.056 0.087s-0.017 0.068-0.015 0.103c-0.003 0.067 0.020 0.133 0.063 0.185 0.024 0.025 0.053 0.044 0.086 0.057s0.067 0.018 0.101 0.015c0.077 0.002 0.152-0.026 0.209-0.078v-0.194h-0.213v0.083z"></path>
<path  d="M3.668 15.499h-0.1v0.492h0.345v-0.084h-0.245v-0.408z"></path>
<path  d="M4.713 15.499h-0.1v0.492h0.1v-0.492z"></path>
<path  d="M5.734 15.828l-0.202-0.329h-0.097v0.492h0.093v-0.322l0.198 0.322h0.099v-0.492h-0.091v0.329z"></path>
<path  d="M6.657 15.775h0.245v-0.084h-0.245v-0.108h0.264v-0.084h-0.364v0.492h0.374v-0.084h-0.274v-0.133z"></path>
<path  d="M8.896 15.693h-0.194v-0.194h-0.099v0.492h0.099v-0.215h0.194v0.215h0.099v-0.492h-0.099v0.194z"></path>
<path  d="M9.825 15.775h0.246v-0.084h-0.246v-0.108h0.265v-0.084h-0.364v0.492h0.373v-0.084h-0.274v-0.133z"></path>
<path  d="M11.084 15.775c0.086-0.013 0.129-0.059 0.129-0.137 0.002-0.021-0.001-0.042-0.009-0.061s-0.022-0.036-0.039-0.048c-0.045-0.022-0.094-0.032-0.144-0.029h-0.209v0.492h0.099v-0.206h0.019c0.021-0.001 0.042 0.002 0.061 0.011 0.014 0.009 0.027 0.021 0.035 0.036l0.107 0.156h0.118l-0.060-0.096c-0.027-0.047-0.064-0.088-0.109-0.118zM10.984 15.707h-0.073v-0.124h0.078c0.034-0.003 0.068 0.001 0.1 0.012 0.007 0.006 0.013 0.014 0.017 0.023s0.005 0.018 0.005 0.028c-0 0.010-0.003 0.019-0.008 0.027s-0.011 0.016-0.019 0.021"></path>
<path  d="M12.034 15.775h0.245v-0.084h-0.245v-0.108h0.265v-0.084h-0.364v0.492h0.374v-0.084h-0.274v-0.133z"></path>
</symbol>
<symbol id="icon-group3" viewBox="0 0 17 16">
<path  d="M2.821 15.658c0.006 0 0.012 0.001 0.018 0.004s0.010 0.005 0.015 0.009l0.083 0.079c-0.065 0.064-0.144 0.116-0.234 0.151-0.105 0.038-0.218 0.057-0.331 0.054-0.107 0.002-0.213-0.015-0.312-0.051-0.089-0.032-0.169-0.081-0.235-0.143-0.067-0.064-0.119-0.139-0.152-0.22-0.036-0.091-0.054-0.186-0.053-0.283-0.001-0.097 0.018-0.193 0.057-0.283 0.036-0.082 0.091-0.157 0.161-0.22 0.071-0.062 0.156-0.111 0.249-0.143 0.102-0.034 0.211-0.052 0.321-0.051 0.102-0.002 0.203 0.013 0.298 0.046 0.082 0.031 0.158 0.074 0.223 0.127l-0.070 0.085c-0.005 0.006-0.011 0.011-0.018 0.015-0.008 0.005-0.018 0.007-0.028 0.006s-0.021-0.004-0.030-0.009l-0.037-0.023-0.052-0.029c-0.022-0.011-0.046-0.020-0.070-0.028-0.031-0.010-0.062-0.017-0.095-0.023-0.041-0.007-0.082-0.010-0.124-0.009-0.079-0.001-0.157 0.012-0.231 0.038-0.068 0.024-0.13 0.060-0.181 0.106-0.052 0.049-0.092 0.107-0.117 0.17-0.029 0.072-0.044 0.148-0.043 0.224-0.001 0.077 0.013 0.154 0.043 0.227 0.025 0.062 0.065 0.12 0.115 0.169 0.048 0.046 0.107 0.082 0.172 0.105 0.068 0.024 0.141 0.037 0.214 0.036 0.042 0.001 0.085-0.002 0.127-0.007 0.068-0.007 0.134-0.028 0.192-0.060 0.029-0.017 0.057-0.035 0.082-0.056 0.011-0.009 0.025-0.014 0.039-0.014z"></path>
<path  d="M5.221 15.259c0.001 0.096-0.018 0.191-0.056 0.281-0.034 0.081-0.087 0.156-0.156 0.218s-0.153 0.111-0.245 0.143c-0.203 0.067-0.428 0.067-0.631 0-0.092-0.033-0.175-0.081-0.244-0.143-0.069-0.063-0.123-0.138-0.158-0.22-0.075-0.182-0.075-0.38 0-0.562 0.035-0.082 0.089-0.157 0.158-0.221 0.070-0.060 0.153-0.107 0.244-0.138 0.203-0.069 0.428-0.069 0.631 0 0.092 0.033 0.176 0.081 0.245 0.143 0.068 0.063 0.122 0.137 0.157 0.217 0.038 0.090 0.057 0.186 0.056 0.282zM5.003 15.259c0.002-0.077-0.012-0.153-0.039-0.226-0.023-0.062-0.061-0.12-0.111-0.169-0.049-0.046-0.109-0.083-0.176-0.106-0.148-0.049-0.311-0.049-0.459 0-0.067 0.024-0.127 0.060-0.176 0.106-0.051 0.049-0.089 0.106-0.112 0.169-0.053 0.147-0.053 0.304 0 0.451 0.023 0.062 0.062 0.12 0.112 0.169 0.049 0.046 0.109 0.082 0.176 0.106 0.148 0.048 0.311 0.048 0.459 0 0.067-0.023 0.127-0.059 0.175-0.106 0.050-0.049 0.088-0.107 0.111-0.169 0.028-0.073 0.041-0.149 0.039-0.226z"></path>
<path  d="M6.858 15.495l0.022 0.051c0.008-0.018 0.016-0.034 0.024-0.051s0.017-0.034 0.027-0.050l0.531-0.838c0.010-0.014 0.020-0.023 0.030-0.026 0.014-0.004 0.029-0.005 0.044-0.005h0.157v1.364h-0.186v-1.003c0-0.013 0-0.027 0-0.042-0.001-0.016-0.001-0.031 0-0.047l-0.534 0.85c-0.007 0.013-0.018 0.024-0.031 0.031s-0.029 0.011-0.046 0.011h-0.030c-0.016 0-0.032-0.004-0.046-0.011s-0.024-0.018-0.031-0.031l-0.549-0.855c0 0.016 0 0.033 0 0.049s0 0.031 0 0.043v1.003h-0.18v-1.361h0.157c0.015-0.001 0.029 0.001 0.044 0.005 0.013 0.006 0.023 0.015 0.029 0.026l0.542 0.839c0.011 0.015 0.020 0.032 0.027 0.049z"></path>
<path  d="M8.855 15.427v0.511h-0.208v-1.362h0.463c0.087-0.001 0.175 0.009 0.259 0.030 0.067 0.017 0.13 0.045 0.183 0.085 0.046 0.037 0.082 0.083 0.104 0.134 0.024 0.056 0.037 0.115 0.035 0.174 0.001 0.060-0.012 0.119-0.038 0.174-0.025 0.052-0.063 0.099-0.112 0.136-0.053 0.041-0.116 0.072-0.184 0.090-0.081 0.022-0.165 0.033-0.25 0.032l-0.251-0.004zM8.855 15.281h0.251c0.055 0.001 0.109-0.006 0.161-0.021 0.043-0.013 0.082-0.033 0.116-0.059 0.031-0.025 0.055-0.056 0.071-0.090 0.017-0.036 0.025-0.075 0.025-0.115 0.002-0.038-0.005-0.076-0.021-0.111s-0.041-0.067-0.073-0.093c-0.079-0.054-0.179-0.080-0.279-0.073h-0.251v0.561z"></path>
<path  d="M11.647 15.94h-0.164c-0.016 0.001-0.033-0.004-0.046-0.013-0.012-0.008-0.021-0.019-0.027-0.032l-0.141-0.329h-0.709l-0.146 0.329c-0.005 0.012-0.014 0.023-0.026 0.031-0.013 0.009-0.030 0.014-0.047 0.014h-0.164l0.623-1.364h0.216l0.631 1.364zM10.619 15.434h0.586l-0.247-0.555c-0.019-0.042-0.034-0.085-0.047-0.128l-0.024 0.071c-0.007 0.022-0.016 0.042-0.023 0.058l-0.245 0.554z"></path>
<path  d="M12.544 14.583c0.012 0.006 0.023 0.014 0.031 0.024l0.909 1.028c0-0.016 0-0.033 0-0.048s0-0.031 0-0.045v-0.966h0.186v1.364h-0.104c-0.015 0-0.029-0.002-0.043-0.008s-0.024-0.015-0.033-0.025l-0.908-1.027c0.001 0.016 0.001 0.031 0 0.047s0 0.029 0 0.041v0.972h-0.186v-1.364h0.11c0.013-0 0.026 0.002 0.037 0.006z"></path>
<path  d="M15.201 15.398v0.541h-0.208v-0.541l-0.574-0.821h0.186c0.016-0.001 0.032 0.003 0.045 0.012 0.011 0.009 0.021 0.019 0.028 0.031l0.359 0.53c0.015 0.023 0.027 0.043 0.037 0.063s0.019 0.039 0.026 0.058l0.027-0.059c0.010-0.021 0.022-0.042 0.035-0.062l0.354-0.533c0.007-0.011 0.017-0.020 0.027-0.029 0.012-0.009 0.028-0.014 0.045-0.014h0.188l-0.575 0.825z"></path>
<path  d="M6.755 12.288c0.090 0.010 0.182 0.018 0.274 0.025 1.401-0.545 2.587-1.436 3.409-2.563s1.243-2.439 1.21-3.773l-1.544-1.342c0.314 1.42 0.167 2.888-0.424 4.239s-1.604 2.533-2.924 3.413z"></path>
<path  d="M6.203 12.226l0.042 0.007c1.411-0.877 2.487-2.101 3.088-3.515s0.701-2.952 0.285-4.415l-2.2-1.911c0.89 1.571 1.248 3.329 1.033 5.070s-0.995 3.393-2.248 4.764z"></path>
<path  d="M13.664 7.553c-0.374 1.465-1.281 2.787-2.588 3.769-0.382 0.288-0.793 0.545-1.23 0.767 1.064-0.272 2.042-0.752 2.859-1.404s1.45-1.459 1.851-2.357l-0.892-0.774z"></path>
<path  d="M13.314 7.337l-1.27-1.104c-0.024 1.258-0.436 2.488-1.192 3.561s-1.83 1.951-3.109 2.542h0.006c0.285-0 0.57-0.015 0.853-0.044 1.195-0.424 2.251-1.098 3.073-1.963s1.385-1.893 1.639-2.992z"></path>
<path  d="M6.387 1.585l-1.515-1.318c-1.355 0.455-2.52 1.254-3.343 2.294s-1.266 2.271-1.27 3.533v0c0.005 1.394 0.545 2.747 1.535 3.845s2.372 1.877 3.929 2.215c1.39-1.471 2.204-3.289 2.323-5.19s-0.462-3.785-1.659-5.379z"></path>
<path  d="M16.815 7.134c-0.005-1.654-0.764-3.239-2.111-4.409s-3.171-1.829-5.075-1.834c-0.88-0.001-1.752 0.14-2.573 0.416l9.278 8.061c0.318-0.713 0.48-1.47 0.48-2.234z"></path>
</symbol>
<symbol id="icon-group4" viewBox="0 0 32 16">
<path d="M5.008 4.992h-0.001c-0.914 0-1.654 0.658-1.654 1.47v0.001c0 0.812 0.741 1.47 1.654 1.47h0.001c0.914 0 1.654-0.658 1.654-1.47v-0.001c0-0.812-0.741-1.47-1.654-1.47z"></path>
<path d="M17.217 4.522c-0.003-1.128-0.508-2.208-1.405-3.006s-2.113-1.247-3.382-1.249v0c-1.269 0.002-2.486 0.451-3.383 1.248s-1.403 1.879-1.406 3.007v6.218c0 0 9.575-0.948 9.576-6.217v-0.001z"></path>
<path d="M0 12.781c0.002 0.785 0.354 1.537 0.978 2.091s1.47 0.868 2.353 0.87c0.883-0.002 1.728-0.315 2.353-0.87s0.976-1.306 0.979-2.091v-4.327c0 0-6.662 0.66-6.662 4.326zM3.331 13.556c-0.173 0-0.341-0.045-0.485-0.131s-0.255-0.206-0.321-0.348c-0.066-0.142-0.083-0.298-0.050-0.448s0.117-0.289 0.239-0.397 0.277-0.182 0.447-0.212c0.169-0.030 0.345-0.015 0.504 0.044s0.296 0.158 0.391 0.286c0.096 0.127 0.147 0.277 0.147 0.431 0 0.102-0.022 0.203-0.065 0.298s-0.108 0.18-0.189 0.252c-0.081 0.072-0.177 0.13-0.283 0.169s-0.22 0.059-0.335 0.059v-0.003z"></path>
<path d="M10.064 13.129h-0.643v0.664h-0.335v-1.625h1.058v0.271h-0.723v0.42h0.643v0.27zM11.673 13.017c0 0.16-0.028 0.3-0.085 0.421s-0.138 0.214-0.243 0.279c-0.105 0.065-0.225 0.098-0.362 0.098-0.135 0-0.255-0.032-0.361-0.097s-0.188-0.157-0.246-0.277c-0.058-0.121-0.087-0.259-0.088-0.415v-0.080c0-0.16 0.029-0.301 0.086-0.422s0.14-0.215 0.244-0.28c0.106-0.065 0.226-0.098 0.362-0.098s0.256 0.033 0.361 0.098c0.106 0.065 0.187 0.158 0.244 0.28s0.087 0.262 0.087 0.421v0.073zM11.334 12.944c0-0.17-0.030-0.3-0.091-0.388s-0.148-0.133-0.261-0.133c-0.112 0-0.199 0.044-0.26 0.132s-0.092 0.215-0.093 0.384v0.079c0 0.166 0.031 0.295 0.091 0.386s0.149 0.137 0.263 0.137c0.112 0 0.199-0.044 0.259-0.132s0.091-0.217 0.091-0.386v-0.079zM12.759 13.367c0-0.063-0.022-0.112-0.067-0.145s-0.125-0.070-0.241-0.107c-0.116-0.038-0.208-0.075-0.276-0.112-0.184-0.1-0.277-0.234-0.277-0.403 0-0.088 0.025-0.166 0.074-0.234s0.121-0.123 0.213-0.162c0.093-0.039 0.197-0.058 0.313-0.058s0.22 0.021 0.31 0.064c0.091 0.042 0.161 0.101 0.211 0.177s0.076 0.164 0.076 0.261h-0.335c0-0.074-0.023-0.132-0.070-0.173s-0.113-0.062-0.198-0.062c-0.082 0-0.145 0.017-0.191 0.052s-0.068 0.080-0.068 0.136c0 0.053 0.026 0.097 0.079 0.133s0.132 0.069 0.235 0.1c0.19 0.057 0.329 0.128 0.416 0.213s0.131 0.19 0.131 0.317c0 0.141-0.053 0.251-0.16 0.331s-0.25 0.119-0.43 0.119c-0.125 0-0.239-0.023-0.342-0.068s-0.181-0.109-0.235-0.189c-0.054-0.080-0.080-0.172-0.080-0.277h0.336c0 0.179 0.107 0.269 0.321 0.269 0.080 0 0.142-0.016 0.186-0.048s0.067-0.078 0.067-0.136zM14.546 12.439h-0.498v1.354h-0.335v-1.354h-0.491v-0.271h1.324v0.271zM15.716 13.089h-0.643v0.435h0.754v0.269h-1.089v-1.625h1.087v0.271h-0.752v0.387h0.643v0.262zM16.625 13.198h-0.267v0.595h-0.335v-1.625h0.604c0.192 0 0.34 0.043 0.444 0.128s0.156 0.206 0.156 0.363c0 0.111-0.024 0.204-0.073 0.278s-0.12 0.132-0.218 0.176l0.352 0.664v0.016h-0.359l-0.305-0.595zM16.359 12.927h0.27c0.084 0 0.149-0.021 0.195-0.064s0.069-0.102 0.069-0.177c0-0.077-0.022-0.137-0.066-0.181s-0.11-0.066-0.2-0.066h-0.269v0.488zM18.388 13.221v0.573h-0.335v-1.625h0.634c0.122 0 0.229 0.022 0.321 0.067s0.164 0.108 0.214 0.191c0.050 0.082 0.075 0.175 0.075 0.28 0 0.159-0.055 0.285-0.164 0.377s-0.259 0.137-0.452 0.137h-0.294zM18.388 12.949h0.299c0.089 0 0.156-0.021 0.202-0.063s0.070-0.101 0.070-0.179c0-0.080-0.023-0.144-0.070-0.193s-0.112-0.074-0.194-0.076h-0.307v0.51zM20.506 13.089h-0.643v0.435h0.754v0.269h-1.089v-1.625h1.087v0.271h-0.752v0.387h0.643v0.262zM22.059 12.439h-0.498v1.354h-0.335v-1.354h-0.491v-0.271h1.324v0.271zM23.229 13.089h-0.643v0.435h0.754v0.269h-1.089v-1.625h1.087v0.271h-0.752v0.387h0.643v0.262zM24.139 13.198h-0.267v0.595h-0.335v-1.625h0.604c0.192 0 0.34 0.043 0.444 0.128s0.156 0.206 0.156 0.363c0 0.111-0.024 0.204-0.073 0.278s-0.12 0.132-0.218 0.176l0.352 0.664v0.016h-0.359l-0.305-0.595zM23.872 12.927h0.27c0.084 0 0.149-0.021 0.195-0.064s0.069-0.102 0.069-0.177c0-0.077-0.022-0.137-0.066-0.181s-0.11-0.066-0.2-0.066h-0.269v0.488zM25.84 13.367c0-0.063-0.022-0.112-0.067-0.145s-0.125-0.070-0.241-0.107c-0.116-0.038-0.208-0.075-0.276-0.112-0.185-0.1-0.277-0.234-0.277-0.403 0-0.088 0.025-0.166 0.074-0.234s0.121-0.123 0.213-0.162c0.093-0.039 0.197-0.058 0.313-0.058s0.22 0.021 0.31 0.064c0.091 0.042 0.161 0.101 0.211 0.177s0.076 0.164 0.076 0.261h-0.335c0-0.074-0.023-0.132-0.070-0.173s-0.113-0.062-0.198-0.062c-0.082 0-0.145 0.017-0.191 0.052s-0.068 0.080-0.068 0.136c0 0.053 0.026 0.097 0.079 0.133s0.132 0.069 0.235 0.1c0.19 0.057 0.329 0.128 0.416 0.213s0.131 0.19 0.131 0.317c0 0.141-0.053 0.251-0.16 0.331s-0.25 0.119-0.43 0.119c-0.125 0-0.239-0.023-0.342-0.068s-0.181-0.109-0.235-0.189c-0.054-0.080-0.080-0.172-0.080-0.277h0.336c0 0.179 0.107 0.269 0.321 0.269 0.080 0 0.142-0.016 0.186-0.048s0.067-0.078 0.067-0.136z"></path>
</symbol>
<symbol id="icon-group5" viewBox="0 0 21 16">
<path d="M1.619 13.186c0.083 0.094 0.127 0.212 0.125 0.333 0.004 0.079-0.011 0.158-0.044 0.23s-0.084 0.138-0.149 0.19c-0.161 0.111-0.361 0.166-0.562 0.153h-0.988v-2.108h0.968c0.191-0.012 0.381 0.038 0.536 0.14 0.063 0.048 0.112 0.108 0.145 0.177s0.047 0.143 0.043 0.217c0.006 0.116-0.034 0.231-0.112 0.322-0.075 0.084-0.179 0.142-0.295 0.165 0.131 0.022 0.25 0.086 0.334 0.18zM0.46 12.868h0.414c0.094 0.006 0.187-0.018 0.263-0.070 0.031-0.026 0.055-0.058 0.071-0.093s0.022-0.074 0.018-0.112c0.003-0.038-0.003-0.076-0.019-0.112s-0.039-0.068-0.069-0.094c-0.078-0.053-0.174-0.078-0.271-0.071h-0.407v0.553zM1.177 13.677c0.033-0.026 0.059-0.059 0.076-0.097s0.024-0.077 0.022-0.118c0.003-0.041-0.005-0.081-0.023-0.119s-0.044-0.071-0.078-0.097c-0.081-0.055-0.181-0.082-0.281-0.076h-0.434v0.58h0.44c0.099 0.005 0.197-0.021 0.278-0.073z"></path>
<path d="M3.599 14.093l-0.539-0.824h-0.202v0.824h-0.463v-2.108h0.877c0.221-0.014 0.44 0.050 0.611 0.179 0.123 0.114 0.197 0.265 0.209 0.425s-0.039 0.318-0.143 0.447c-0.108 0.114-0.256 0.189-0.418 0.214l0.574 0.842h-0.504zM2.858 12.982h0.379c0.263 0 0.395-0.106 0.395-0.319 0.003-0.043-0.005-0.087-0.021-0.128s-0.042-0.078-0.076-0.109c-0.083-0.063-0.19-0.094-0.298-0.085h-0.383l0.005 0.641z"></path>
<path d="M6.131 13.668h-0.923l-0.163 0.424h-0.486l0.848-2.084h0.525l0.845 2.084h-0.486l-0.16-0.424zM6.007 13.349l-0.337-0.89-0.337 0.89h0.675z"></path>
<path d="M9.301 14.093h-0.46l-1.031-1.433v1.433h-0.459v-2.108h0.459l1.031 1.442v-1.442h0.46v2.108z"></path>
<path d="M11.926 13.588c-0.095 0.159-0.24 0.289-0.416 0.372-0.2 0.093-0.422 0.138-0.647 0.133h-0.819v-2.108h0.819c0.224-0.005 0.446 0.039 0.647 0.13 0.176 0.081 0.321 0.209 0.416 0.368 0.095 0.171 0.144 0.361 0.144 0.553s-0.049 0.382-0.144 0.553zM11.4 13.538c0.131-0.14 0.203-0.318 0.203-0.503s-0.072-0.363-0.203-0.503c-0.159-0.127-0.366-0.191-0.576-0.179h-0.319v1.364h0.319c0.21 0.012 0.417-0.052 0.576-0.179z"></path>
<path d="M6.419 0.261c0 0 5.937 2.052 5.811 5.022v5.023c0 0-5.932-2.053-5.808-5.023l-0.002-5.022z"></path>
<path d="M17.518 9.13c1.121-0.706 2.418-1.144 3.772-1.273v-1.572c-1.56 0.55-2.883 1.549-3.772 2.845z"></path>
<path d="M16.845 9.603c0.918-1.692 2.509-2.997 4.445-3.648v-4.531c0 0-8.454 2.923-8.276 7.152v7.151c0 0 0.377-0.131 0.969-0.376 0-0.229 0-0.459 0.027-0.691 0.175-1.963 1.194-3.782 2.834-5.058z"></path>
<path d="M16.041 12.26c0.044-0.496 0.144-0.987 0.296-1.464-1.021 1.101-1.639 2.468-1.768 3.908-0.012 0.136-0.019 0.272-0.023 0.412 0.48-0.211 1.039-0.475 1.626-0.785-0.15-0.681-0.194-1.378-0.132-2.071z"></path>
<path d="M16.377 12.286c-0.056 0.626-0.021 1.257 0.105 1.875 2.31-1.265 4.905-3.221 4.805-5.584v-0.206c-1.65 0.169-3.194 0.83-4.395 1.88-0.281 0.651-0.455 1.337-0.515 2.035z"></path>
</symbol>
<symbol id="icon-group6" viewBox="0 0 33 16">
<path d="M16.862 7.612c-0.158-0.21-0.233-0.458-0.215-0.707v-1.025c0-0.314 0.071-0.553 0.214-0.716s0.387-0.245 0.734-0.244c0.326 0 0.558 0.070 0.695 0.209 0.149 0.177 0.222 0.394 0.205 0.613v0.241h-0.583v-0.244c0.002-0.080-0.004-0.16-0.017-0.239-0.008-0.054-0.038-0.104-0.083-0.142-0.060-0.041-0.135-0.060-0.211-0.055-0.080-0.005-0.159 0.016-0.222 0.058-0.051 0.042-0.085 0.097-0.097 0.156-0.017 0.084-0.024 0.169-0.023 0.253v1.244c-0.009 0.12 0.017 0.24 0.075 0.349 0.029 0.037 0.069 0.066 0.116 0.085s0.099 0.025 0.151 0.020c0.075 0.005 0.149-0.015 0.207-0.056 0.048-0.041 0.078-0.094 0.087-0.151 0.014-0.083 0.020-0.166 0.018-0.249v-0.252h0.583v0.23c0.016 0.228-0.054 0.455-0.202 0.644-0.134 0.152-0.362 0.228-0.698 0.228s-0.589-0.081-0.733-0.25z"></path>
<path d="M19.291 7.622c-0.147-0.16-0.221-0.392-0.221-0.7v-1.078c0-0.304 0.074-0.535 0.221-0.691s0.394-0.234 0.739-0.234c0.343 0 0.588 0.078 0.736 0.234s0.222 0.387 0.222 0.691v1.078c0 0.304-0.075 0.538-0.225 0.699s-0.394 0.241-0.733 0.241c-0.339 0-0.591-0.081-0.739-0.24zM20.302 7.364c0.053-0.1 0.077-0.209 0.070-0.319v-1.32c0.007-0.108-0.017-0.215-0.069-0.313-0.030-0.038-0.071-0.068-0.119-0.086s-0.102-0.025-0.154-0.018c-0.052-0.006-0.106 0-0.154 0.019s-0.090 0.048-0.12 0.086c-0.053 0.098-0.077 0.205-0.070 0.313v1.327c-0.007 0.11 0.017 0.219 0.070 0.319 0.034 0.034 0.076 0.061 0.123 0.079s0.098 0.028 0.15 0.028c0.052 0 0.103-0.010 0.15-0.028s0.089-0.045 0.123-0.079v-0.006z"></path>
<path d="M21.69 4.951h0.628l0.472 1.99 0.483-1.99h0.611l0.062 2.872h-0.452l-0.048-1.996-0.466 1.996h-0.362l-0.483-2.003-0.045 2.003h-0.457l0.057-2.872z"></path>
<path d="M24.651 4.951h0.978c0.564 0 0.846 0.272 0.846 0.815 0 0.521-0.297 0.781-0.89 0.78h-0.333v1.276h-0.604l0.004-2.872zM25.487 6.178c0.060 0.007 0.12 0.002 0.178-0.014s0.11-0.042 0.155-0.077c0.069-0.097 0.1-0.211 0.087-0.324 0.003-0.088-0.007-0.175-0.029-0.261-0.009-0.029-0.024-0.055-0.044-0.079s-0.047-0.043-0.076-0.058c-0.084-0.035-0.177-0.050-0.269-0.046h-0.234v0.858h0.234z"></path>
<path d="M27.346 4.951h0.649l0.666 2.872h-0.563l-0.132-0.662h-0.579l-0.135 0.662h-0.571l0.666-2.872zM27.9 6.828l-0.226-1.205-0.226 1.205h0.452z"></path>
<path d="M29.197 4.951h0.423l0.809 1.638v-1.638h0.501v2.872h-0.402l-0.814-1.71v1.71h-0.518l0.001-2.872z"></path>
<path d="M32.105 6.727l-0.673-1.773h0.567l0.411 1.139 0.385-1.139h0.554l-0.664 1.773v1.095h-0.58v-1.095z"></path>
<path d="M17.795 9.078v0.15h-0.493v1.167h-0.207v-1.167h-0.495v-0.15h1.195z"></path>
<path d="M19.34 10.395h-0.159c-0.016 0.001-0.032-0.004-0.045-0.013-0.012-0.008-0.021-0.018-0.027-0.030l-0.143-0.313h-0.684l-0.143 0.313c-0.004 0.013-0.011 0.025-0.022 0.035-0.013 0.009-0.029 0.013-0.045 0.013h-0.159l0.604-1.317h0.21l0.611 1.312zM18.339 9.906h0.57l-0.242-0.536c-0.018-0.041-0.033-0.082-0.045-0.124-0.008 0.025-0.016 0.049-0.023 0.070l-0.022 0.055-0.239 0.535z"></path>
<path d="M20.381 10.266c0.038 0.002 0.076 0.002 0.114 0 0.033-0.003 0.065-0.008 0.097-0.016 0.030-0.006 0.059-0.014 0.087-0.024 0.027-0.009 0.053-0.021 0.081-0.032v-0.296h-0.242c-0.006 0-0.012-0-0.018-0.002s-0.011-0.005-0.015-0.008c-0.004-0.003-0.007-0.007-0.009-0.011s-0.003-0.009-0.003-0.013v-0.101h0.469v0.505c-0.038 0.024-0.079 0.045-0.121 0.063s-0.088 0.033-0.134 0.045c-0.049 0.013-0.1 0.022-0.151 0.027-0.059 0.006-0.117 0.008-0.176 0.008-0.104 0.001-0.208-0.016-0.304-0.049-0.090-0.031-0.173-0.078-0.242-0.138-0.067-0.060-0.12-0.131-0.156-0.209-0.038-0.087-0.057-0.18-0.056-0.273-0.001-0.094 0.017-0.187 0.054-0.275 0.035-0.078 0.088-0.149 0.156-0.209s0.151-0.106 0.242-0.137c0.103-0.034 0.213-0.050 0.324-0.049 0.056-0 0.112 0.004 0.168 0.011 0.049 0.007 0.097 0.018 0.144 0.033 0.042 0.014 0.083 0.031 0.121 0.052 0.037 0.021 0.072 0.044 0.105 0.069l-0.058 0.081c-0.005 0.007-0.011 0.014-0.020 0.018s-0.018 0.007-0.028 0.007c-0.013-0-0.026-0.004-0.037-0.010-0.018-0.008-0.037-0.019-0.059-0.031-0.026-0.014-0.053-0.026-0.081-0.035-0.036-0.012-0.073-0.022-0.111-0.029-0.051-0.008-0.102-0.012-0.153-0.011-0.080-0.001-0.159 0.012-0.233 0.036-0.067 0.023-0.128 0.059-0.178 0.104-0.050 0.047-0.088 0.103-0.112 0.164-0.054 0.143-0.054 0.296 0 0.439 0.026 0.062 0.068 0.118 0.121 0.166 0.050 0.045 0.11 0.081 0.176 0.104 0.077 0.023 0.158 0.032 0.239 0.026z"></path>
<path d="M22.306 10.245h0.66v0.15h-0.861v-1.317h0.207l-0.005 1.167z"></path>
<path d="M23.652 10.395h-0.207v-1.317h0.207v1.317z"></path>
<path d="M24.42 9.084c0.012 0.006 0.023 0.014 0.031 0.024l0.883 0.993c-0.001-0.016-0.001-0.031 0-0.047 0-0.015 0-0.029 0-0.043v-0.939h0.18v1.322h-0.104c-0.015 0.001-0.031-0.001-0.045-0.007-0.013-0.007-0.024-0.015-0.033-0.025l-0.882-0.992c0 0.016 0 0.030 0 0.045s0 0.028 0 0.041v0.939h-0.173v-1.317h0.108c0.012 0 0.023 0.002 0.034 0.006z"></path>
<path d="M27.035 9.078v0.145h-0.732v0.435h0.593v0.14h-0.593v0.449h0.732v0.145h-0.945v-1.314h0.945z"></path>
<path d="M5.391 0.944l9.172 2.248v7.878l-9.172-2.247v-7.879zM4.803 0.273v8.934l10.347 2.537v-8.933l-10.347-2.538z"></path>
<path d="M10.348 15.891l-10.348-2.539v-8.933l10.348 2.538v8.934z"></path>
<path d="M4.974 0.843l9.052 2.22-3.85 3.324-9.053-2.221 3.851-3.323zM4.803 0.273l-4.803 4.146 10.348 2.538 4.801-4.146-10.347-2.538z"></path>
<path d="M10.93 15.388l4.219-3.643-4.219-1.035v4.679z"></path>
</symbol>
<symbol id="icon-instagram-2" viewBox="0 0 16 16">
<path d="M15.984 4.704c-0.037-0.85-0.175-1.435-0.372-1.941-0.203-0.538-0.516-1.019-0.925-1.419-0.4-0.406-0.885-0.722-1.416-0.922-0.509-0.197-1.091-0.334-1.941-0.372-0.856-0.041-1.128-0.050-3.301-0.050s-2.444 0.009-3.298 0.047c-0.85 0.037-1.435 0.175-1.941 0.372-0.538 0.203-1.019 0.516-1.419 0.925-0.406 0.4-0.722 0.885-0.922 1.416-0.197 0.51-0.334 1.091-0.372 1.941-0.041 0.856-0.050 1.128-0.050 3.301s0.009 2.444 0.047 3.298c0.037 0.85 0.175 1.435 0.372 1.941 0.203 0.538 0.519 1.019 0.925 1.419 0.4 0.406 0.885 0.722 1.416 0.922 0.51 0.197 1.091 0.334 1.941 0.372 0.853 0.038 1.125 0.047 3.298 0.047s2.444-0.009 3.298-0.047c0.85-0.037 1.435-0.175 1.941-0.372 1.075-0.416 1.925-1.266 2.341-2.341 0.197-0.51 0.334-1.091 0.372-1.941 0.037-0.853 0.047-1.125 0.047-3.298s-0.003-2.444-0.041-3.298zM14.544 11.237c-0.034 0.781-0.166 1.203-0.275 1.485-0.269 0.697-0.822 1.25-1.519 1.519-0.281 0.109-0.706 0.241-1.485 0.275-0.844 0.038-1.097 0.047-3.232 0.047s-2.391-0.009-3.232-0.047c-0.781-0.034-1.203-0.166-1.485-0.275-0.347-0.128-0.663-0.331-0.919-0.597-0.266-0.259-0.469-0.572-0.597-0.919-0.109-0.281-0.241-0.706-0.275-1.485-0.038-0.844-0.047-1.097-0.047-3.232s0.009-2.391 0.047-3.232c0.034-0.781 0.166-1.203 0.275-1.485 0.128-0.347 0.331-0.663 0.6-0.919 0.259-0.266 0.572-0.469 0.919-0.597 0.281-0.109 0.706-0.241 1.485-0.275 0.844-0.037 1.097-0.047 3.232-0.047 2.138 0 2.391 0.009 3.232 0.047 0.781 0.034 1.203 0.166 1.485 0.275 0.347 0.128 0.663 0.331 0.919 0.597 0.266 0.259 0.469 0.572 0.597 0.919 0.109 0.281 0.241 0.706 0.275 1.485 0.038 0.844 0.047 1.097 0.047 3.232s-0.009 2.385-0.047 3.229z"></path>
<path d="M8.030 3.891c-2.269 0-4.11 1.841-4.11 4.11s1.841 4.11 4.11 4.11c2.269 0 4.11-1.841 4.11-4.11s-1.841-4.11-4.11-4.11zM8.030 10.668c-1.472 0-2.666-1.194-2.666-2.666s1.194-2.666 2.666-2.666c1.472 0 2.666 1.194 2.666 2.666s-1.194 2.666-2.666 2.666z"></path>
<path d="M13.262 3.729c0 0.53-0.43 0.96-0.96 0.96s-0.96-0.43-0.96-0.96c0-0.53 0.43-0.96 0.96-0.96s0.96 0.43 0.96 0.96z"></path>
</symbol>
<symbol id="icon-linkedin-1" viewBox="0 0 16 16">
<path d="M15.996 16v-0.001h0.004v-5.868c0-2.871-0.618-5.082-3.974-5.082-1.613 0-2.696 0.885-3.138 1.725h-0.047v-1.457h-3.182v10.682h3.313v-5.289c0-1.393 0.264-2.739 1.989-2.739 1.699 0 1.725 1.589 1.725 2.829v5.201h3.31z"></path>
<path d="M0.264 5.318h3.317v10.682h-3.317v-10.682z"></path>
<path d="M1.921 0c-1.061 0-1.921 0.861-1.921 1.921s0.861 1.939 1.921 1.939c1.061 0 1.921-0.879 1.921-1.939s-0.861-1.921-1.921-1.921v0z"></path>
</symbol>
<symbol id="icon-smartphone" viewBox="0 0 10 16">
<path  d="M8.5 0h-7c-0.827 0-1.5 0.673-1.5 1.5v13c0 0.827 0.673 1.5 1.5 1.5h7c0.827 0 1.5-0.673 1.5-1.5v-13c0-0.827-0.673-1.5-1.5-1.5zM1.5 1h7c0.276 0 0.5 0.224 0.5 0.5v10.5h-8v-10.5c0-0.276 0.224-0.5 0.5-0.5zM8.5 15h-7c-0.276 0-0.5-0.224-0.5-0.5v-1.5h8v1.5c0 0.276-0.224 0.5-0.5 0.5z"></path>
<path  d="M2.354 13.739c0.195 0.182 0.195 0.478 0 0.66s-0.512 0.182-0.707 0c-0.195-0.182-0.195-0.478 0-0.66s0.512-0.182 0.707 0z"></path>
</symbol>
<symbol id="icon-twitter-1" viewBox="0 0 16 16">
<path d="M16 3.039c-0.595 0.261-1.229 0.434-1.89 0.518 0.68-0.406 1.199-1.044 1.443-1.813-0.634 0.378-1.334 0.645-2.080 0.794-0.602-0.641-1.46-1.038-2.396-1.038-1.816 0-3.278 1.474-3.278 3.281 0 0.26 0.022 0.51 0.076 0.748-2.727-0.133-5.14-1.44-6.761-3.431-0.283 0.491-0.449 1.053-0.449 1.658 0 1.136 0.585 2.143 1.457 2.726-0.527-0.010-1.044-0.163-1.482-0.404 0 0.010 0 0.023 0 0.036 0 1.594 1.137 2.918 2.628 3.223-0.267 0.073-0.558 0.108-0.86 0.108-0.21 0-0.422-0.012-0.621-0.056 0.425 1.299 1.631 2.254 3.065 2.285-1.116 0.873-2.533 1.399-4.067 1.399-0.269 0-0.527-0.012-0.785-0.045 1.453 0.937 3.175 1.472 5.032 1.472 6.036 0 9.336-5 9.336-9.334 0-0.145-0.005-0.285-0.012-0.424 0.651-0.462 1.198-1.039 1.644-1.703z"></path>
</symbol>
</defs>
</svg>
